<svg width="120" height="32" viewBox="0 0 120 32" fill="none" xmlns="http://www.w3.org/2000/svg">
  <path d="M10.6667 5.33337H21.3334C24.2789 5.33337 26.6667 7.72119 26.6667 10.6667V21.3334C26.6667 24.2789 24.2789 26.6667 21.3334 26.6667H10.6667C7.72119 26.6667 5.33337 24.2789 5.33337 21.3334V10.6667C5.33337 7.72119 7.72119 5.33337 10.6667 5.33337Z" fill="#0666EB"/>
  <path d="M37.3334 9.33337H40.0001V22.6667H37.3334V9.33337Z" fill="#191C20"/>
  <path d="M42.6667 9.33337H45.3334V10.6667C46.0001 9.73337 47.0667 9.06671 48.4001 9.06671C51.0667 9.06671 52.6667 11.0667 52.6667 14.0001C52.6667 16.9334 51.0667 19.0001 48.4001 19.0001C47.0667 19.0001 46.0001 18.3334 45.3334 17.4001V22.6667H42.6667V9.33337ZM47.6001 16.6667C49.0667 16.6667 50.0001 15.6001 50.0001 14.0001C50.0001 12.4001 49.0667 11.3334 47.6001 11.3334C46.1334 11.3334 45.2001 12.4001 45.2001 14.0001C45.2001 15.6001 46.1334 16.6667 47.6001 16.6667Z" fill="#191C20"/>
  <path d="M60.6667 9.06671C63.6001 9.06671 65.8667 11.3334 65.8667 14.0001C65.8667 16.6667 63.6001 19.0001 60.6667 19.0001C57.7334 19.0001 55.4667 16.6667 55.4667 14.0001C55.4667 11.3334 57.7334 9.06671 60.6667 9.06671ZM60.6667 16.6667C62.1334 16.6667 63.2001 15.6001 63.2001 14.0001C63.2001 12.4001 62.1334 11.3334 60.6667 11.3334C59.2001 11.3334 58.1334 12.4001 58.1334 14.0001C58.1334 15.6001 59.2001 16.6667 60.6667 16.6667Z" fill="#191C20"/>
  <path d="M67.4667 9.33337H70.1334V10.6667C70.8001 9.73337 71.8667 9.06671 73.2001 9.06671C75.8667 9.06671 77.4667 11.0667 77.4667 14.0001C77.4667 16.9334 75.8667 19.0001 73.2001 19.0001C71.8667 19.0001 70.8001 18.3334 70.1334 17.4001V22.6667H67.4667V9.33337ZM72.4001 16.6667C73.8667 16.6667 74.8001 15.6001 74.8001 14.0001C74.8001 12.4001 73.8667 11.3334 72.4001 11.3334C70.9334 11.3334 70.0001 12.4001 70.0001 14.0001C70.0001 15.6001 70.9334 16.6667 72.4001 16.6667Z" fill="#191C20"/>
  <path d="M79.4667 9.33337H82.1334V10.6667C82.8001 9.73337 83.8667 9.06671 85.2001 9.06671C87.8667 9.06671 89.4667 11.0667 89.4667 14.0001C89.4667 16.9334 87.8667 19.0001 85.2001 19.0001C83.8667 19.0001 82.8001 18.3334 82.1334 17.4001V22.6667H79.4667V9.33337ZM84.4001 16.6667C85.8667 16.6667 86.8001 15.6001 86.8001 14.0001C86.8001 12.4001 85.8667 11.3334 84.4001 11.3334C82.9334 11.3334 82.0001 12.4001 82.0001 14.0001C82.0001 15.6001 82.9334 16.6667 84.4001 16.6667Z" fill="#191C20"/>
  <path d="M91.4667 9.33337H94.1334V10.6667C94.8001 9.73337 95.8667 9.06671 97.2001 9.06671C99.8667 9.06671 101.467 11.0667 101.467 14.0001C101.467 16.9334 99.8667 19.0001 97.2001 19.0001C95.8667 19.0001 94.8001 18.3334 94.1334 17.4001V22.6667H91.4667V9.33337ZM96.4001 16.6667C97.8667 16.6667 98.8001 15.6001 98.8001 14.0001C98.8001 12.4001 97.8667 11.3334 96.4001 11.3334C94.9334 11.3334 94.0001 12.4001 94.0001 14.0001C94.0001 15.6001 94.9334 16.6667 96.4001 16.6667Z" fill="#191C20"/>
  <path d="M103.467 9.33337H106.133V10.6667C106.8 9.73337 107.867 9.06671 109.2 9.06671C111.867 9.06671 113.467 11.0667 113.467 14.0001C113.467 16.9334 111.867 19.0001 109.2 19.0001C107.867 19.0001 106.8 18.3334 106.133 17.4001V22.6667H103.467V9.33337ZM108.4 16.6667C109.867 16.6667 110.8 15.6001 110.8 14.0001C110.8 12.4001 109.867 11.3334 108.4 11.3334C106.933 11.3334 106 12.4001 106 14.0001C106 15.6001 106.933 16.6667 108.4 16.6667Z" fill="#191C20"/>
</svg> 